# xmcd CD database file
#
# Track frame offsets:
#	150
#	28729
#	50575
#	76037
#	104656
#	130819
#	161512
#	199075
#	221691
#
# Disc length: 3266 seconds
#
# Revision: 0
# Processed by: cddbd v1.5.2PL0 Copyright (c) Steve Scherf et al.
# Submitted via: CDex 1.51
#
DISCID=790cc009
DTITLE=Andy Aledort and Lucky Peterson - Tete a Tete
DYEAR=2007
DGENRE=Blues
TTITLE0='Til My Dying' Day 
TTITLE1=No More
TTITLE2=Leavin' To Stay
TTITLE3=Get Outta My Bed!
TTITLE4=Not Guilty
TTITLE5=Tete a Tete
TTITLE6=Croon
TTITLE7=Talk Is Cheap
TTITLE8=Tribute To Albert Collins
EXTD=YEAR: 2007
EXTT0=
EXTT1=
EXTT2=
EXTT3=
EXTT4=
EXTT5=
EXTT6=
EXTT7=
EXTT8=
PLAYORDER=
